<svg xmlns="http://www.w3.org/2000/svg" xmlns:xlink="http://www.w3.org/1999/xlink" width="500" zoomAndPan="magnify" viewBox="0 0 375 374.999991" height="500" preserveAspectRatio="xMidYMid meet" version="1.0"><defs><clipPath id="807b32d4a3"><path d="M 78 113.875 L 297 113.875 L 297 260.875 L 78 260.875 Z M 78 113.875 " clip-rule="nonzero"/></clipPath></defs><path fill="#009688" d="M 363.9375 179.625 L 195.28125 10.96875 C 188.4375 4.21875 179.0625 0 168.75 0 L 37.5 0 C 16.78125 0 0 16.78125 0 37.5 L 0 168.75 C 0 179.15625 4.21875 188.53125 11.0625 195.28125 L 179.8125 364.03125 C 186.5625 370.78125 195.9375 375 206.25 375 C 216.5625 375 226.03125 370.78125 232.78125 364.03125 L 364.03125 232.78125 C 370.78125 225.9375 375 216.5625 375 206.25 C 375 195.84375 370.78125 186.46875 363.9375 179.625 Z M 65.625 93.75 C 50.0625 93.75 37.5 81.1875 37.5 65.625 C 37.5 50.0625 50.0625 37.5 65.625 37.5 C 81.1875 37.5 93.75 50.0625 93.75 65.625 C 93.75 81.1875 81.1875 93.75 65.625 93.75 Z M 65.625 93.75 " fill-opacity="1" fill-rule="nonzero"/><g clip-path="url(#807b32d4a3)"><path fill="#ffffff" d="M 289.625 182.148438 C 280.148438 146.011719 269.230469 122.238281 244.074219 115.40625 C 240.238281 114.367188 236.621094 113.859375 233.023438 113.859375 C 225.433594 113.859375 219.328125 116.148438 213.40625 118.359375 C 207.964844 120.398438 201.882812 122.628906 193.46875 123.386719 L 187.175781 123.570312 C 187.175781 123.605469 168.160156 120.816406 161.539062 118.335938 C 155.652344 116.128906 149.558594 113.847656 142 113.847656 C 138.394531 113.847656 134.773438 114.355469 130.9375 115.402344 C 105.761719 122.234375 94.847656 146.003906 85.390625 182.144531 C 74.429688 224.007812 77.460938 252.066406 93.707031 259.140625 C 96.347656 260.300781 99.136719 260.886719 101.976562 260.886719 C 116.421875 260.886719 129.707031 245.703125 139.410156 234.601562 L 142.050781 231.542969 C 149.960938 222.289062 166.53125 216.984375 187.503906 216.984375 C 210.3125 216.984375 224.332031 221.476562 232.953125 231.554688 L 235.597656 234.621094 C 245.289062 245.707031 258.5625 260.878906 273.019531 260.878906 C 275.875 260.878906 278.652344 260.292969 281.28125 259.140625 C 297.527344 252.070312 300.5625 224.007812 289.625 182.148438 Z M 152.984375 184.976562 L 142.140625 184.976562 L 142.140625 195.480469 C 142.140625 199.332031 138.75 202.578125 134.742188 202.578125 C 130.722656 202.578125 127.332031 199.332031 127.332031 195.480469 L 127.332031 184.976562 L 117.144531 184.976562 C 113.300781 184.976562 110.046875 181.582031 110.046875 177.570312 C 110.046875 173.550781 113.296875 170.160156 117.144531 170.160156 L 127.332031 170.160156 L 127.332031 159.644531 C 127.332031 155.800781 130.726562 152.546875 134.742188 152.546875 C 138.75 152.546875 142.140625 155.800781 142.140625 159.644531 L 142.140625 170.160156 L 152.984375 170.160156 C 156.824219 170.160156 160.082031 173.550781 160.082031 177.570312 C 160.085938 181.585938 156.828125 184.976562 152.984375 184.976562 Z M 230 197.863281 C 223.992188 197.863281 219.109375 192.984375 219.109375 186.984375 C 219.109375 180.980469 224.003906 176.101562 230 176.101562 C 235.996094 176.101562 240.871094 180.984375 240.871094 186.984375 C 240.871094 192.984375 235.992188 197.863281 230 197.863281 Z M 250.300781 177.5625 C 244.296875 177.5625 239.421875 172.675781 239.421875 166.679688 C 239.421875 160.683594 244.304688 155.800781 250.300781 155.800781 C 256.296875 155.800781 261.183594 160.683594 261.1875 166.679688 C 261.1875 172.679688 256.296875 177.5625 250.300781 177.5625 Z M 250.300781 177.5625 " fill-opacity="1" fill-rule="nonzero"/></g></svg>