<svg xmlns="http://www.w3.org/2000/svg" xmlns:xlink="http://www.w3.org/1999/xlink" width="500" zoomAndPan="magnify" viewBox="0 0 375 374.999991" height="500" preserveAspectRatio="xMidYMid meet" version="1.0"><defs><g/><clipPath id="ea7df78dfd"><path d="M 6.691406 156.691406 L 68.191406 156.691406 L 68.191406 218.191406 L 6.691406 218.191406 Z M 6.691406 156.691406 " clip-rule="nonzero"/></clipPath><clipPath id="62bf0c7a76"><path d="M 19 175.402344 L 56 175.402344 L 56 199.402344 L 19 199.402344 Z M 19 175.402344 " clip-rule="nonzero"/></clipPath></defs><g clip-path="url(#ea7df78dfd)"><path fill="#009688" d="M 66.480469 186.203125 L 38.773438 158.496094 C 37.648438 157.386719 36.109375 156.691406 34.414062 156.691406 L 12.851562 156.691406 C 9.449219 156.691406 6.691406 159.449219 6.691406 162.851562 L 6.691406 184.414062 C 6.691406 186.125 7.386719 187.664062 8.507812 188.773438 L 36.230469 216.496094 C 37.339844 217.605469 38.882812 218.296875 40.574219 218.296875 C 42.269531 218.296875 43.824219 217.605469 44.933594 216.496094 L 66.496094 194.933594 C 67.605469 193.808594 68.296875 192.269531 68.296875 190.574219 C 68.296875 188.867188 67.605469 187.324219 66.480469 186.203125 Z M 17.472656 172.09375 C 14.917969 172.09375 12.851562 170.03125 12.851562 167.472656 C 12.851562 164.917969 14.917969 162.851562 17.472656 162.851562 C 20.03125 162.851562 22.09375 164.917969 22.09375 167.472656 C 22.09375 170.03125 20.03125 172.09375 17.472656 172.09375 Z M 17.472656 172.09375 " fill-opacity="1" fill-rule="nonzero"/></g><g clip-path="url(#62bf0c7a76)"><path fill="#ffffff" d="M 54.269531 186.617188 C 52.714844 180.683594 50.921875 176.777344 46.789062 175.65625 C 46.160156 175.484375 45.566406 175.402344 44.972656 175.402344 C 43.726562 175.402344 42.722656 175.777344 41.75 176.140625 C 40.855469 176.472656 39.859375 176.839844 38.476562 176.964844 L 37.441406 176.996094 C 37.441406 177 34.320312 176.542969 33.230469 176.136719 C 32.265625 175.773438 31.261719 175.398438 30.023438 175.398438 C 29.429688 175.398438 28.835938 175.480469 28.203125 175.652344 C 24.070312 176.777344 22.277344 180.679688 20.722656 186.617188 C 18.921875 193.492188 19.417969 198.101562 22.089844 199.265625 C 22.523438 199.457031 22.980469 199.550781 23.445312 199.550781 C 25.820312 199.550781 28 197.058594 29.59375 195.234375 L 30.03125 194.730469 C 31.328125 193.210938 34.050781 192.339844 37.496094 192.339844 C 41.242188 192.339844 43.546875 193.078125 44.960938 194.734375 L 45.394531 195.238281 C 46.988281 197.058594 49.167969 199.550781 51.542969 199.550781 C 52.011719 199.550781 52.46875 199.453125 52.898438 199.265625 C 55.570312 198.101562 56.066406 193.496094 54.269531 186.617188 Z M 31.824219 187.082031 L 30.042969 187.082031 L 30.042969 188.808594 C 30.042969 189.441406 29.488281 189.972656 28.828125 189.972656 C 28.167969 189.972656 27.613281 189.441406 27.613281 188.808594 L 27.613281 187.082031 L 25.9375 187.082031 C 25.308594 187.082031 24.773438 186.523438 24.773438 185.867188 C 24.773438 185.207031 25.304688 184.648438 25.9375 184.648438 L 27.613281 184.648438 L 27.613281 182.921875 C 27.613281 182.289062 28.167969 181.753906 28.828125 181.753906 C 29.488281 181.753906 30.042969 182.289062 30.042969 182.921875 L 30.042969 184.648438 L 31.824219 184.648438 C 32.457031 184.648438 32.992188 185.207031 32.992188 185.867188 C 32.992188 186.527344 32.457031 187.082031 31.824219 187.082031 Z M 44.476562 189.199219 C 43.488281 189.199219 42.6875 188.398438 42.6875 187.410156 C 42.6875 186.425781 43.492188 185.625 44.476562 185.625 C 45.460938 185.625 46.261719 186.425781 46.261719 187.410156 C 46.261719 188.398438 45.460938 189.199219 44.476562 189.199219 Z M 47.8125 185.863281 C 46.824219 185.863281 46.023438 185.0625 46.023438 184.078125 C 46.023438 183.089844 46.828125 182.289062 47.8125 182.289062 C 48.796875 182.289062 49.597656 183.089844 49.597656 184.078125 C 49.597656 185.0625 48.796875 185.863281 47.8125 185.863281 Z M 47.8125 185.863281 " fill-opacity="1" fill-rule="nonzero"/></g><g fill="#616161" fill-opacity="1"><g transform="translate(70.956042, 199.874987)"><g><path d="M 19.53125 -17.765625 C 19.0625 -18.628906 18.390625 -19.285156 17.515625 -19.734375 C 16.640625 -20.191406 15.613281 -20.421875 14.4375 -20.421875 C 12.382812 -20.421875 10.738281 -19.75 9.5 -18.40625 C 8.269531 -17.0625 7.65625 -15.269531 7.65625 -13.03125 C 7.65625 -10.632812 8.300781 -8.765625 9.59375 -7.421875 C 10.894531 -6.078125 12.679688 -5.40625 14.953125 -5.40625 C 16.503906 -5.40625 17.816406 -5.796875 18.890625 -6.578125 C 19.960938 -7.367188 20.742188 -8.503906 21.234375 -9.984375 L 13.203125 -9.984375 L 13.203125 -14.65625 L 26.96875 -14.65625 L 26.96875 -8.765625 C 26.5 -7.191406 25.703125 -5.722656 24.578125 -4.359375 C 23.460938 -3.003906 22.039062 -1.90625 20.3125 -1.0625 C 18.582031 -0.226562 16.632812 0.1875 14.46875 0.1875 C 11.90625 0.1875 9.617188 -0.375 7.609375 -1.5 C 5.597656 -2.625 4.03125 -4.179688 2.90625 -6.171875 C 1.78125 -8.171875 1.21875 -10.457031 1.21875 -13.03125 C 1.21875 -15.59375 1.78125 -17.878906 2.90625 -19.890625 C 4.03125 -21.898438 5.585938 -23.460938 7.578125 -24.578125 C 9.578125 -25.703125 11.863281 -26.265625 14.4375 -26.265625 C 17.539062 -26.265625 20.160156 -25.507812 22.296875 -24 C 24.429688 -22.5 25.84375 -20.421875 26.53125 -17.765625 Z M 19.53125 -17.765625 "/></g></g></g><g fill="#616161" fill-opacity="1"><g transform="translate(99.147038, 199.874987)"><g><path d="M 1.03125 -10.359375 C 1.03125 -12.484375 1.429688 -14.347656 2.234375 -15.953125 C 3.035156 -17.554688 4.125 -18.785156 5.5 -19.640625 C 6.882812 -20.503906 8.429688 -20.9375 10.140625 -20.9375 C 11.597656 -20.9375 12.875 -20.640625 13.96875 -20.046875 C 15.0625 -19.460938 15.90625 -18.6875 16.5 -17.71875 L 16.5 -20.640625 L 22.828125 -20.640625 L 22.828125 0 L 16.5 0 L 16.5 -2.921875 C 15.882812 -1.960938 15.023438 -1.1875 13.921875 -0.59375 C 12.828125 0 11.550781 0.296875 10.09375 0.296875 C 8.414062 0.296875 6.882812 -0.140625 5.5 -1.015625 C 4.125 -1.890625 3.035156 -3.132812 2.234375 -4.75 C 1.429688 -6.363281 1.03125 -8.234375 1.03125 -10.359375 Z M 16.5 -10.328125 C 16.5 -11.898438 16.0625 -13.140625 15.1875 -14.046875 C 14.3125 -14.960938 13.242188 -15.421875 11.984375 -15.421875 C 10.722656 -15.421875 9.65625 -14.972656 8.78125 -14.078125 C 7.90625 -13.179688 7.46875 -11.941406 7.46875 -10.359375 C 7.46875 -8.773438 7.90625 -7.519531 8.78125 -6.59375 C 9.65625 -5.675781 10.722656 -5.21875 11.984375 -5.21875 C 13.242188 -5.21875 14.3125 -5.671875 15.1875 -6.578125 C 16.0625 -7.492188 16.5 -8.742188 16.5 -10.328125 Z M 16.5 -10.328125 "/></g></g></g><g fill="#616161" fill-opacity="1"><g transform="translate(124.267367, 199.874987)"><g><path d="M 28.640625 -20.875 C 31.203125 -20.875 33.238281 -20.09375 34.75 -18.53125 C 36.269531 -16.976562 37.03125 -14.820312 37.03125 -12.0625 L 37.03125 0 L 30.75 0 L 30.75 -11.21875 C 30.75 -12.539062 30.394531 -13.566406 29.6875 -14.296875 C 28.988281 -15.023438 28.019531 -15.390625 26.78125 -15.390625 C 25.550781 -15.390625 24.582031 -15.023438 23.875 -14.296875 C 23.175781 -13.566406 22.828125 -12.539062 22.828125 -11.21875 L 22.828125 0 L 16.53125 0 L 16.53125 -11.21875 C 16.53125 -12.539062 16.179688 -13.566406 15.484375 -14.296875 C 14.785156 -15.023438 13.816406 -15.390625 12.578125 -15.390625 C 11.347656 -15.390625 10.378906 -15.023438 9.671875 -14.296875 C 8.972656 -13.566406 8.625 -12.539062 8.625 -11.21875 L 8.625 0 L 2.296875 0 L 2.296875 -20.640625 L 8.625 -20.640625 L 8.625 -18.0625 C 9.257812 -18.914062 10.09375 -19.597656 11.125 -20.109375 C 12.164062 -20.617188 13.34375 -20.875 14.65625 -20.875 C 16.207031 -20.875 17.59375 -20.539062 18.8125 -19.875 C 20.03125 -19.207031 20.988281 -18.253906 21.6875 -17.015625 C 22.394531 -18.148438 23.363281 -19.078125 24.59375 -19.796875 C 25.832031 -20.515625 27.179688 -20.875 28.640625 -20.875 Z M 28.640625 -20.875 "/></g></g></g><g fill="#616161" fill-opacity="1"><g transform="translate(163.446201, 199.874987)"><g><path d="M 21.75 -10.65625 C 21.75 -10.0625 21.710938 -9.445312 21.640625 -8.8125 L 7.328125 -8.8125 C 7.421875 -7.519531 7.832031 -6.535156 8.5625 -5.859375 C 9.289062 -5.179688 10.1875 -4.84375 11.25 -4.84375 C 12.820312 -4.84375 13.921875 -5.507812 14.546875 -6.84375 L 21.28125 -6.84375 C 20.925781 -5.488281 20.300781 -4.265625 19.40625 -3.171875 C 18.507812 -2.085938 17.378906 -1.238281 16.015625 -0.625 C 14.660156 -0.0078125 13.144531 0.296875 11.46875 0.296875 C 9.445312 0.296875 7.644531 -0.132812 6.0625 -1 C 4.488281 -1.863281 3.253906 -3.097656 2.359375 -4.703125 C 1.472656 -6.304688 1.03125 -8.179688 1.03125 -10.328125 C 1.03125 -12.472656 1.46875 -14.347656 2.34375 -15.953125 C 3.21875 -17.554688 4.445312 -18.785156 6.03125 -19.640625 C 7.613281 -20.503906 9.425781 -20.9375 11.46875 -20.9375 C 13.46875 -20.9375 15.242188 -20.515625 16.796875 -19.671875 C 18.347656 -18.835938 19.5625 -17.644531 20.4375 -16.09375 C 21.3125 -14.539062 21.75 -12.726562 21.75 -10.65625 Z M 15.28125 -12.328125 C 15.28125 -13.410156 14.910156 -14.269531 14.171875 -14.90625 C 13.429688 -15.550781 12.503906 -15.875 11.390625 -15.875 C 10.335938 -15.875 9.445312 -15.5625 8.71875 -14.9375 C 7.988281 -14.320312 7.535156 -13.453125 7.359375 -12.328125 Z M 15.28125 -12.328125 "/></g></g></g><g fill="#616161" fill-opacity="1"><g transform="translate(186.235781, 199.874987)"><g><path d="M 11.6875 0.265625 C 9.789062 0.265625 8.085938 -0.0390625 6.578125 -0.65625 C 5.078125 -1.28125 3.875 -2.195312 2.96875 -3.40625 C 2.070312 -4.613281 1.597656 -6.066406 1.546875 -7.765625 L 8.28125 -7.765625 C 8.382812 -6.804688 8.71875 -6.070312 9.28125 -5.5625 C 9.851562 -5.0625 10.59375 -4.8125 11.5 -4.8125 C 12.4375 -4.8125 13.175781 -5.023438 13.71875 -5.453125 C 14.269531 -5.890625 14.546875 -6.488281 14.546875 -7.25 C 14.546875 -7.894531 14.328125 -8.425781 13.890625 -8.84375 C 13.460938 -9.257812 12.929688 -9.601562 12.296875 -9.875 C 11.671875 -10.144531 10.78125 -10.453125 9.625 -10.796875 C 7.945312 -11.316406 6.578125 -11.835938 5.515625 -12.359375 C 4.453125 -12.878906 3.535156 -13.644531 2.765625 -14.65625 C 2.003906 -15.664062 1.625 -16.984375 1.625 -18.609375 C 1.625 -21.023438 2.5 -22.914062 4.25 -24.28125 C 6 -25.65625 8.28125 -26.34375 11.09375 -26.34375 C 13.957031 -26.34375 16.265625 -25.65625 18.015625 -24.28125 C 19.765625 -22.914062 20.703125 -21.015625 20.828125 -18.578125 L 13.984375 -18.578125 C 13.929688 -19.410156 13.617188 -20.066406 13.046875 -20.546875 C 12.484375 -21.035156 11.757812 -21.28125 10.875 -21.28125 C 10.113281 -21.28125 9.5 -21.070312 9.03125 -20.65625 C 8.5625 -20.25 8.328125 -19.664062 8.328125 -18.90625 C 8.328125 -18.070312 8.71875 -17.421875 9.5 -16.953125 C 10.289062 -16.484375 11.523438 -15.972656 13.203125 -15.421875 C 14.878906 -14.859375 16.242188 -14.316406 17.296875 -13.796875 C 18.347656 -13.285156 19.253906 -12.535156 20.015625 -11.546875 C 20.773438 -10.554688 21.15625 -9.285156 21.15625 -7.734375 C 21.15625 -6.253906 20.78125 -4.910156 20.03125 -3.703125 C 19.28125 -2.492188 18.1875 -1.53125 16.75 -0.8125 C 15.320312 -0.09375 13.632812 0.265625 11.6875 0.265625 Z M 11.6875 0.265625 "/></g></g></g><g fill="#616161" fill-opacity="1"><g transform="translate(208.988362, 199.874987)"><g><path d="M 31.9375 -20.640625 L 26.34375 0 L 19.34375 0 L 16.09375 -13.390625 L 12.734375 0 L 5.765625 0 L 0.140625 -20.640625 L 6.46875 -20.640625 L 9.390625 -5.890625 L 12.875 -20.640625 L 19.578125 -20.640625 L 23.09375 -5.953125 L 25.96875 -20.640625 Z M 31.9375 -20.640625 "/></g></g></g><g fill="#616161" fill-opacity="1"><g transform="translate(241.026953, 199.874987)"><g><path d="M 1.03125 -10.359375 C 1.03125 -12.484375 1.429688 -14.347656 2.234375 -15.953125 C 3.035156 -17.554688 4.125 -18.785156 5.5 -19.640625 C 6.882812 -20.503906 8.429688 -20.9375 10.140625 -20.9375 C 11.597656 -20.9375 12.875 -20.640625 13.96875 -20.046875 C 15.0625 -19.460938 15.90625 -18.6875 16.5 -17.71875 L 16.5 -20.640625 L 22.828125 -20.640625 L 22.828125 0 L 16.5 0 L 16.5 -2.921875 C 15.882812 -1.960938 15.023438 -1.1875 13.921875 -0.59375 C 12.828125 0 11.550781 0.296875 10.09375 0.296875 C 8.414062 0.296875 6.882812 -0.140625 5.5 -1.015625 C 4.125 -1.890625 3.035156 -3.132812 2.234375 -4.75 C 1.429688 -6.363281 1.03125 -8.234375 1.03125 -10.359375 Z M 16.5 -10.328125 C 16.5 -11.898438 16.0625 -13.140625 15.1875 -14.046875 C 14.3125 -14.960938 13.242188 -15.421875 11.984375 -15.421875 C 10.722656 -15.421875 9.65625 -14.972656 8.78125 -14.078125 C 7.90625 -13.179688 7.46875 -11.941406 7.46875 -10.359375 C 7.46875 -8.773438 7.90625 -7.519531 8.78125 -6.59375 C 9.65625 -5.675781 10.722656 -5.21875 11.984375 -5.21875 C 13.242188 -5.21875 14.3125 -5.671875 15.1875 -6.578125 C 16.0625 -7.492188 16.5 -8.742188 16.5 -10.328125 Z M 16.5 -10.328125 "/></g></g></g><g fill="#616161" fill-opacity="1"><g transform="translate(266.147282, 199.874987)"><g><path d="M 8.625 -17.71875 C 9.238281 -18.6875 10.085938 -19.460938 11.171875 -20.046875 C 12.253906 -20.640625 13.523438 -20.9375 14.984375 -20.9375 C 16.679688 -20.9375 18.222656 -20.503906 19.609375 -19.640625 C 20.992188 -18.785156 22.085938 -17.554688 22.890625 -15.953125 C 23.691406 -14.347656 24.09375 -12.484375 24.09375 -10.359375 C 24.09375 -8.234375 23.691406 -6.363281 22.890625 -4.75 C 22.085938 -3.132812 20.992188 -1.890625 19.609375 -1.015625 C 18.222656 -0.140625 16.679688 0.296875 14.984375 0.296875 C 13.554688 0.296875 12.289062 0 11.1875 -0.59375 C 10.09375 -1.1875 9.238281 -1.953125 8.625 -2.890625 L 8.625 9.84375 L 2.296875 9.84375 L 2.296875 -20.640625 L 8.625 -20.640625 Z M 17.65625 -10.359375 C 17.65625 -11.941406 17.210938 -13.179688 16.328125 -14.078125 C 15.453125 -14.972656 14.375 -15.421875 13.09375 -15.421875 C 11.84375 -15.421875 10.773438 -14.960938 9.890625 -14.046875 C 9.015625 -13.140625 8.578125 -11.898438 8.578125 -10.328125 C 8.578125 -8.742188 9.015625 -7.492188 9.890625 -6.578125 C 10.773438 -5.671875 11.84375 -5.21875 13.09375 -5.21875 C 14.351562 -5.21875 15.425781 -5.675781 16.3125 -6.59375 C 17.207031 -7.519531 17.65625 -8.773438 17.65625 -10.359375 Z M 17.65625 -10.359375 "/></g></g></g><g fill="#616161" fill-opacity="1"><g transform="translate(291.26761, 199.874987)"><g><path d="M 24.796875 -25.96875 L 24.796875 0 L 18.46875 0 L 18.46875 -10.6875 L 8.625 -10.6875 L 8.625 0 L 2.296875 0 L 2.296875 -25.96875 L 8.625 -25.96875 L 8.625 -15.796875 L 18.46875 -15.796875 L 18.46875 -25.96875 Z M 24.796875 -25.96875 "/></g></g></g><g fill="#616161" fill-opacity="1"><g transform="translate(318.311737, 199.874987)"><g><path d="M 22.6875 -20.640625 L 22.6875 0 L 16.359375 0 L 16.359375 -2.8125 C 15.710938 -1.894531 14.835938 -1.160156 13.734375 -0.609375 C 12.640625 -0.0546875 11.425781 0.21875 10.09375 0.21875 C 8.519531 0.21875 7.128906 -0.128906 5.921875 -0.828125 C 4.710938 -1.535156 3.773438 -2.554688 3.109375 -3.890625 C 2.441406 -5.222656 2.109375 -6.785156 2.109375 -8.578125 L 2.109375 -20.640625 L 8.40625 -20.640625 L 8.40625 -9.4375 C 8.40625 -8.050781 8.757812 -6.972656 9.46875 -6.203125 C 10.1875 -5.441406 11.148438 -5.0625 12.359375 -5.0625 C 13.585938 -5.0625 14.5625 -5.441406 15.28125 -6.203125 C 16 -6.972656 16.359375 -8.050781 16.359375 -9.4375 L 16.359375 -20.640625 Z M 22.6875 -20.640625 "/></g></g></g><g fill="#616161" fill-opacity="1"><g transform="translate(343.247084, 199.874987)"><g><path d="M 8.625 -17.71875 C 9.21875 -18.6875 10.066406 -19.460938 11.171875 -20.046875 C 12.285156 -20.640625 13.554688 -20.9375 14.984375 -20.9375 C 16.679688 -20.9375 18.222656 -20.503906 19.609375 -19.640625 C 20.992188 -18.785156 22.085938 -17.554688 22.890625 -15.953125 C 23.691406 -14.347656 24.09375 -12.484375 24.09375 -10.359375 C 24.09375 -8.234375 23.691406 -6.363281 22.890625 -4.75 C 22.085938 -3.132812 20.992188 -1.890625 19.609375 -1.015625 C 18.222656 -0.140625 16.679688 0.296875 14.984375 0.296875 C 13.523438 0.296875 12.253906 0.0078125 11.171875 -0.5625 C 10.085938 -1.144531 9.238281 -1.921875 8.625 -2.890625 L 8.625 0 L 2.296875 0 L 2.296875 -27.375 L 8.625 -27.375 Z M 17.65625 -10.359375 C 17.65625 -11.941406 17.210938 -13.179688 16.328125 -14.078125 C 15.453125 -14.972656 14.375 -15.421875 13.09375 -15.421875 C 11.84375 -15.421875 10.773438 -14.960938 9.890625 -14.046875 C 9.015625 -13.140625 8.578125 -11.898438 8.578125 -10.328125 C 8.578125 -8.742188 9.015625 -7.492188 9.890625 -6.578125 C 10.773438 -5.671875 11.84375 -5.21875 13.09375 -5.21875 C 14.351562 -5.21875 15.425781 -5.675781 16.3125 -6.59375 C 17.207031 -7.519531 17.65625 -8.773438 17.65625 -10.359375 Z M 17.65625 -10.359375 "/></g></g></g></svg>